<?xml version="1.0" encoding="UTF-8"?>
<svg version="1.1" xmlns="http://www.w3.org/2000/svg" width="1024" height="1024">
<path d="M0 0 C337.92 0 675.84 0 1024 0 C1024 337.92 1024 675.84 1024 1024 C686.08 1024 348.16 1024 0 1024 C0 686.08 0 348.16 0 0 Z " fill="#FBFBFB" transform="translate(0,0)"/>
<path d="M0 0 C24.2757624 23.550476 42.6916239 58.07612749 50 91 C50.17587646 91.69367676 50.35175293 92.38735352 50.53295898 93.10205078 C52.35170449 100.88974274 52.35553552 108.67309514 52.3125 116.625 C52.31034485 117.3378717 52.3081897 118.05074341 52.30596924 118.78521729 C52.25564221 129.13891255 51.90691746 138.97387714 49 149 C48.80132324 149.70157227 48.60264648 150.40314453 48.39794922 151.12597656 C42.66032964 170.99060406 33.3475211 188.99917672 19 204 C18.39800781 204.67675781 17.79601562 205.35351562 17.17578125 206.05078125 C-2.12369371 226.9411023 -36.52101455 239.83408166 -64.38305664 241.16113281 C-68.27631765 241.20748437 -72.16897801 241.24618023 -76.0625 241.25 C-77.12804611 241.25151062 -77.12804611 241.25151062 -78.21511841 241.25305176 C-90.67376842 241.24114753 -102.74944592 240.33612829 -115 238 C-115.70447266 237.87141602 -116.40894531 237.74283203 -117.13476562 237.61035156 C-141.14492735 233.08686472 -164.04057032 223.419425 -186 213 C-187.59666504 212.24299805 -187.59666504 212.24299805 -189.22558594 211.47070312 C-205.73801198 203.57279298 -221.36537769 194.90595281 -236.12817383 184.0703125 C-240.80529086 180.69855764 -245.6222146 177.54471118 -250.4375 174.375 C-258.24344171 169.20846433 -265.97867038 163.96243773 -273.625 158.5625 C-311.29642518 132.04163962 -352.24756039 112.27321274 -398 105 C-398.92828613 104.82726562 -399.85657227 104.65453125 -400.81298828 104.4765625 C-406.69137279 103.59755173 -412.62926379 103.75518179 -418.5625 103.75 C-419.25396118 103.74932526 -419.94542236 103.74865051 -420.65783691 103.74795532 C-432.6433412 103.76648033 -444.24489396 104.56030672 -456 107 C-456.78697266 107.16097168 -457.57394531 107.32194336 -458.38476562 107.48779297 C-495.09409678 115.32503943 -528.46896568 136.98520963 -549.2109375 168.45703125 C-556.2858807 179.70944091 -562.26653361 191.58621996 -567 204 C-568.07678311 200.5847382 -568.00547569 197.67570967 -567.765625 194.1171875 C-567.64924683 192.38021606 -567.64924683 192.38021606 -567.53051758 190.6081543 C-565.95318934 169.61692178 -562.72578887 150.98487771 -556 131 C-555.76442383 130.29246582 -555.52884766 129.58493164 -555.28613281 128.85595703 C-547.26895052 105.36165826 -532.09222729 84.69995092 -515 67 C-514.20207031 66.15050781 -513.40414062 65.30101562 -512.58203125 64.42578125 C-501.79167204 53.21296099 -489.122819 44.27183796 -476 36 C-475.25194092 35.52199951 -474.50388184 35.04399902 -473.7331543 34.55151367 C-467.49926824 30.67260992 -461.10920295 27.6944986 -454.3125 24.9375 C-453.24870117 24.5041333 -452.18490234 24.0707666 -451.08886719 23.62426758 C-448.06430832 22.40298806 -445.03340806 21.19909338 -442 20 C-441.30245605 19.71705078 -440.60491211 19.43410156 -439.88623047 19.14257812 C-388.14848286 -1.61439809 -328.78788763 11.49783839 -279.5625 32.3125 C-263.59396353 39.20373629 -248.38533944 47.23401557 -233.3359375 55.9296875 C-201.90169895 74.07147047 -169.94074141 90.25877547 -134 97 C-132.76121094 97.24492187 -131.52242187 97.48984375 -130.24609375 97.7421875 C-98.44199729 103.02477918 -58.9391897 98.95240551 -31.9375 80 C-14.65984853 66.49295707 -5.04879405 46.49273819 -2 25 C-1.8246875 23.89914062 -1.649375 22.79828125 -1.46875 21.6640625 C-0.91026704 17.29858735 -0.65346211 12.95608989 -0.4375 8.5625 C-0.39431641 7.73556641 -0.35113281 6.90863281 -0.30664062 6.05664062 C-0.20161967 4.03790451 -0.10041441 2.01897049 0 0 Z " fill="#00BAD8" transform="translate(767,305)"/>
<path d="M0 0 C30.12664909 -1.37002217 57.9222408 7.98295291 85.07128906 20.09863281 C86.58964355 20.77539062 86.58964355 20.77539062 88.13867188 21.46582031 C113.53592706 32.92249866 136.93000032 47.67501269 160.07128906 63.09863281 C162.1506903 64.48018213 164.23011796 65.86169169 166.30957031 67.24316406 C173.63300668 72.11483635 180.9499733 76.99617018 188.24707031 81.90722656 C244.32956371 119.6122809 312.0010127 154.64134822 381.88378906 141.03613281 C409.85600434 135.14273041 434.47818086 123.10336649 455.07128906 103.09863281 C455.81378906 102.41800781 456.55628906 101.73738281 457.32128906 101.03613281 C473.78331286 85.48866589 483.84479414 64.5710721 490.07128906 43.09863281 C490.34489258 42.16470703 490.61849609 41.23078125 490.90039062 40.26855469 C492.66540489 34.22333108 494.38772975 28.16702505 496.07128906 22.09863281 C498.62294936 25.92612326 498.41315846 29.03271646 498.38378906 33.47363281 C498.38032471 34.33561279 498.37686035 35.19759277 498.37329102 36.08569336 C498.09519178 53.69505966 496.43466102 72.00214814 492.07128906 89.09863281 C491.83635742 90.04561035 491.83635742 90.04561035 491.59667969 91.01171875 C484.36313667 119.62717147 469.48050117 147.86626257 450.07128906 170.09863281 C448.82412109 171.54689453 448.82412109 171.54689453 447.55175781 173.02441406 C418.51562702 206.1285127 373.30780189 225.19597966 329.78222656 228.78222656 C310.28915141 230.03765214 290.21020014 230.33944837 271.07128906 226.09863281 C270.35070312 225.94297852 269.63011719 225.78732422 268.88769531 225.62695312 C227.00393096 216.27589878 188.47214468 196.69899235 150.82128906 176.72363281 C127.33614157 164.26946869 103.5948365 152.80018253 78.07128906 145.09863281 C77.38583008 144.88899902 76.70037109 144.67936523 75.99414062 144.46337891 C44.35834703 134.87698792 5.01479646 129.55476824 -25.67871094 144.78613281 C-43.6362035 154.42208511 -56.8319256 167.87136774 -62.99121094 187.48144531 C-63.73734619 190.34402191 -64.37511033 193.19333683 -64.92871094 196.09863281 C-65.15558594 197.25363281 -65.38246094 198.40863281 -65.61621094 199.59863281 C-66.93027574 214.31615863 -64.13173942 228.02892043 -59.92871094 242.09863281 C-64.62977162 238.45999795 -68.11532431 234.63631592 -71.61621094 229.84863281 C-72.1316748 229.15116943 -72.64713867 228.45370605 -73.17822266 227.73510742 C-82.65336099 214.76722409 -91.00063846 201.05423455 -98.92871094 187.09863281 C-99.3233252 186.41333496 -99.71793945 185.72803711 -100.12451172 185.02197266 C-113.82621561 161.07367881 -120.14125804 135.51621556 -120.24121094 108.03613281 C-120.24382935 107.34709869 -120.24644775 106.65806458 -120.24914551 105.94815063 C-120.25343448 95.41611397 -119.54633958 86.04396034 -115.92871094 76.09863281 C-115.51298828 74.77412109 -115.51298828 74.77412109 -115.08886719 73.42285156 C-108.81887159 55.30632051 -93.92791027 40.34290262 -78.92871094 29.09863281 C-78.41260254 28.70224609 -77.89649414 28.30585938 -77.36474609 27.89746094 C-54.53090805 10.41583635 -28.68651899 1.46700679 0 0 Z " fill="#0060AC" transform="translate(339.9287109375,476.9013671875)"/>
<path d="M0 0 C0.63089539 0.13811096 1.26179077 0.27622192 1.9118042 0.41851807 C25.78692389 5.67496701 48.88818062 12.47226324 71 23 C72.02601318 23.48122314 72.02601318 23.48122314 73.07275391 23.97216797 C96.75911766 35.13236185 121.03733974 49.63079726 131 75 C134.31527426 84.94582279 132.1093716 96.74790004 127.8125 106.0625 C122.48301926 116.05527639 115.2344749 122.47840686 104.4921875 126.22265625 C63.38687642 138.39715921 22.33549952 118.89860183 -14.09130859 101.10253906 C-47.45860519 84.80365904 -84.89125591 68.80898662 -122 64 C-123.15423462 63.8450708 -123.15423462 63.8450708 -124.33178711 63.68701172 C-133.46068695 62.66336172 -142.67323375 62.77793381 -151.84741211 62.75976562 C-154.76771508 62.7501475 -157.68728584 62.71908771 -160.60742188 62.6875 C-177.68716918 62.59140368 -194.45290007 64.40652683 -211.125 68.1875 C-212.03386963 68.38819092 -212.94273926 68.58888184 -213.87915039 68.7956543 C-226.3909448 71.65234804 -238.70216724 75.34727275 -251 79 C-244.87453971 65.56191816 -228.65905614 55.36157268 -217 47 C-216.33887207 46.52079102 -215.67774414 46.04158203 -214.99658203 45.54785156 C-204.43767789 37.93030011 -193.39344968 31.28860847 -182 25 C-181.35691895 24.6380957 -180.71383789 24.27619141 -180.05126953 23.90332031 C-160.38346837 12.92716426 -137.86867734 6.04890074 -116 1 C-115.02820801 0.75878418 -114.05641602 0.51756836 -113.05517578 0.26904297 C-77.7782213 -8.21910749 -35.3730217 -7.8188655 0 0 Z " fill="#01BBD8" transform="translate(572,196)"/>
<path d="M0 0 C76.69799048 36.40250682 156.49515375 59.18703981 240.0078125 30.26171875 C244.52824064 28.64530802 249.0173533 26.9573705 253.48242188 25.19384766 C255.47415476 24.47067034 257.44817404 23.93229647 259.51171875 23.45703125 C255.77934645 28.47642848 251.39542213 32.15473321 246.515625 36.046875 C243.58589237 38.39751874 240.73869797 40.82553805 237.88671875 43.26953125 C191.23633568 82.13479217 125.85205389 108.53677185 64.81640625 108.625 C63.4638121 108.63142014 63.4638121 108.63142014 62.08389282 108.63796997 C59.18478353 108.64790856 56.28584176 108.64803217 53.38671875 108.64453125 C52.39518799 108.64359467 51.40365723 108.64265808 50.38208008 108.64169312 C13.21277027 108.56536624 -22.88610912 103.59708512 -57.48828125 89.45703125 C-58.11444336 89.20373047 -58.74060547 88.95042969 -59.38574219 88.68945312 C-75.98178495 81.90827436 -92.74287781 74.1070988 -106.48828125 62.45703125 C-107.35453125 61.7403125 -108.22078125 61.02359375 -109.11328125 60.28515625 C-122.71872573 48.5877924 -133.3040874 33.9012723 -134.8046875 15.59765625 C-135.270093 4.57213429 -133.61168745 -4.15482924 -126.48828125 -12.85546875 C-121.49611676 -18.00287239 -116.13702761 -20.97336397 -109.48828125 -23.54296875 C-108.62203125 -23.88199219 -107.75578125 -24.22101562 -106.86328125 -24.5703125 C-71.18525016 -35.82341242 -31.28820235 -14.85365769 0 0 Z " fill="#161716" transform="translate(471.48828125,716.54296875)"/>
<path d="M0 0 C0.33 0 0.66 0 1 0 C0.96519531 1.258125 0.93039062 2.51625 0.89453125 3.8125 C0.60411996 18.98090519 2.64376956 32.41744136 7 47 C2.50961112 43.49064916 -0.9630557 39.86347707 -4.375 35.3125 C-4.82488281 34.73177734 -5.27476562 34.15105469 -5.73828125 33.55273438 C-9 29.26491261 -9 29.26491261 -9 27 C-7.68 27 -6.36 27 -5 27 C-5 26.34 -5 25.68 -5 25 C-4.01 25 -3.02 25 -2 25 C-1.93941406 23.69804688 -1.87882812 22.39609375 -1.81640625 21.0546875 C-1.73195438 19.32811601 -1.64730874 17.601554 -1.5625 15.875 C-1.50352539 14.59109375 -1.50352539 14.59109375 -1.44335938 13.28125 C-1.21843598 8.78278208 -0.86459117 4.43193793 0 0 Z " fill="#07549B" transform="translate(273,672)"/>
<path d="M0 0 C1.05692047 0.00636726 1.05692047 0.00636726 2.13519287 0.01286316 C4.37698212 0.02960337 6.61785931 0.06724471 8.859375 0.10546875 C10.38279948 0.12052171 11.90623811 0.13420905 13.4296875 0.14648438 C17.15654441 0.17949084 20.88287063 0.23124021 24.609375 0.29296875 C23.949375 1.28296875 23.289375 2.27296875 22.609375 3.29296875 C19.98475256 3.55994763 17.59871567 3.64129859 14.9765625 3.5859375 C13.84880905 3.57957024 13.84880905 3.57957024 12.69827271 3.57307434 C10.29327815 3.55626045 7.88911691 3.51860499 5.484375 3.48046875 C3.85548084 3.46542534 2.22657356 3.45173633 0.59765625 3.43945312 C-3.39875934 3.40634829 -7.39455082 3.35454884 -11.390625 3.29296875 C-7.78947011 -0.1761438 -4.87466137 -0.05803168 0 0 Z " fill="#DFEDED" transform="translate(511.390625,188.70703125)"/>
<path d="M0 0 C18.49312261 -0.494672 35.80829194 0.13226902 54 4 C54 4.33 54 4.66 54 5 C46.8319739 6.37846656 46.8319739 6.37846656 43 4 C41.6757713 3.63215869 40.34386088 3.28797019 39 3 C39 3.66 39 4.32 39 5 C35.37 5 31.74 5 28 5 C28.99 4.34 29.98 3.68 31 3 C24.54194917 1.89740596 18.10241808 1.67425668 11.5625 1.4375 C10.44939453 1.39431641 9.33628906 1.35113281 8.18945312 1.30664062 C5.45974156 1.20120112 2.72994857 1.09907971 0 1 C0 0.67 0 0.34 0 0 Z " fill="#10ABC6" transform="translate(377,315)"/>
<path d="M0 0 C2.080882 3.121323 2.24949894 3.80896169 2.23046875 7.3515625 C2.22853516 8.20363281 2.22660156 9.05570312 2.22460938 9.93359375 C2.21236328 10.82175781 2.20011719 11.70992188 2.1875 12.625 C2.18685547 13.48996094 2.18621094 14.35492187 2.18554688 15.24609375 C2.14740967 20.89887469 1.71089416 26.39246686 1 32 C0.67 32 0.34 32 0 32 C-0.33 26.39 -0.66 20.78 -1 15 C-1.99 16.32 -2.98 17.64 -4 19 C-3.46048934 12.31006781 -2.11293829 6.36539272 0 0 Z " fill="#0E5293" transform="translate(836,499)"/>
<path d="M0 0 C1.65688859 0.01510544 3.31379083 0.02878328 4.97070312 0.04101562 C8.959984 0.07348566 12.94858248 0.12492749 16.9375 0.1875 C16.9375 0.5175 16.9375 0.8475 16.9375 1.1875 C16.10839111 1.20208252 15.27928223 1.21666504 14.42504883 1.23168945 C-4.62458231 1.6044884 -23.4702283 2.09385877 -42.02392578 6.90258789 C-44.31276069 7.22247655 -45.87593193 6.88227725 -48.0625 6.1875 C-47.4025 6.1875 -46.7425 6.1875 -46.0625 6.1875 C-46.0625 5.5275 -46.0625 4.8675 -46.0625 4.1875 C-44.1134375 4.0328125 -44.1134375 4.0328125 -42.125 3.875 C-38.17262115 3.49687437 -34.34412177 2.86282828 -30.45469666 2.06941223 C-20.24499117 0.04110455 -10.37626351 -0.16788704 0 0 Z " fill="#11A9C2" transform="translate(346.0625,406.8125)"/>
<path d="M0 0 C10.23 0 20.46 0 31 0 C31 0.33 31 0.66 31 1 C29.02 1.33 27.04 1.66 25 2 C25 2.33 25 2.66 25 3 C16.75 3 8.5 3 0 3 C0 2.01 0 1.02 0 0 Z " fill="#E4F4F5" transform="translate(332,408)"/>
<path d="M0 0 C0 3.78176921 -1.07555275 5.76967782 -3 9 C-5.125 10.25 -5.125 10.25 -7 11 C-7.33 11.66 -7.66 12.32 -8 13 C-6.35 13 -4.7 13 -3 13 C-5.85584773 14.90389849 -7.9311762 15.69462177 -11.1875 16.625 C-12.53908203 17.01558594 -12.53908203 17.01558594 -13.91796875 17.4140625 C-14.94857422 17.70410156 -14.94857422 17.70410156 -16 18 C-14.6415798 14.95667235 -13.11536976 12.87690849 -10.7421875 10.546875 C-10.11699219 9.928125 -9.49179687 9.309375 -8.84765625 8.671875 C-8.19667969 8.03765625 -7.54570312 7.4034375 -6.875 6.75 C-6.21628906 6.1003125 -5.55757813 5.450625 -4.87890625 4.78125 C-3.25703357 3.18288273 -1.6306719 1.58938103 0 0 Z " fill="#07B1D0" transform="translate(337,257)"/>
<path d="M0 0 C0.33 0 0.66 0 1 0 C1.33 3.63 1.66 7.26 2 11 C2.33 9.02 2.66 7.04 3 5 C3.33 5.66 3.66 6.32 4 7 C4.66 7.33 5.32 7.66 6 8 C5.66226563 8.73605469 5.32453125 9.47210938 4.9765625 10.23046875 C4.30753906 11.69419922 4.30753906 11.69419922 3.625 13.1875 C3.18414062 14.15042969 2.74328125 15.11335938 2.2890625 16.10546875 C1.12678149 18.71531792 0.04075219 21.33975959 -1 24 C-1.80537071 21.21154981 -2.08953181 18.88925677 -1.9140625 15.99609375 C-1.87023437 15.25552734 -1.82640625 14.51496094 -1.78125 13.75195312 C-1.7296875 12.98818359 -1.678125 12.22441406 -1.625 11.4375 C-1.58117187 10.66986328 -1.53734375 9.90222656 -1.4921875 9.11132812 C-1.28966422 5.88501972 -1.02666063 3.07998188 0 0 Z " fill="#27B0C8" transform="translate(201,485)"/>
<path d="M0 0 C5.83028038 0.54973427 10.58290168 2.2453859 15.9375 4.5625 C16.71673828 4.89185547 17.49597656 5.22121094 18.29882812 5.56054688 C20.20235303 6.36633349 22.10163025 7.18214217 24 8 C24 8.33 24 8.66 24 9 C18.25 9.125 18.25 9.125 16 8 C16 7.34 16 6.68 16 6 C14.02 6.33 12.04 6.66 10 7 C10 6.34 10 5.68 10 5 C7.01758453 4.22678118 4.02419525 3.58803797 1 3 C0.67 2.01 0.34 1.02 0 0 Z " fill="#0C58A1" transform="translate(394,486)"/>
<path d="M0 0 C1.02150398 0.03541649 1.02150398 0.03541649 2.06364441 0.07154846 C4.22365787 0.14769011 6.38326703 0.23192444 8.54296875 0.31640625 C10.01365256 0.36967664 11.48435568 0.42241664 12.95507812 0.47460938 C16.54711899 0.60323714 20.1388428 0.73912097 23.73046875 0.87890625 C23.73046875 1.20890625 23.73046875 1.53890625 23.73046875 1.87890625 C22.65116089 1.91649048 22.65116089 1.91649048 21.55004883 1.95483398 C3.11895911 2.55126674 3.11895911 2.55126674 -15.26953125 3.87890625 C-14.27953125 3.54890625 -13.28953125 3.21890625 -12.26953125 2.87890625 C-12.26953125 2.21890625 -12.26953125 1.55890625 -12.26953125 0.87890625 C-8.09070103 -0.15794636 -4.29319841 -0.15900735 0 0 Z " fill="#034086" transform="translate(350.26953125,610.12109375)"/>
<path d="M0 0 C0.99 0.33 1.98 0.66 3 1 C-23.31700288 13 -23.31700288 13 -30 13 C-30 12.34 -30 11.68 -30 11 C-29.42967041 10.83395264 -28.85934082 10.66790527 -28.27172852 10.49682617 C-25.69804345 9.73976729 -23.1304046 8.96392862 -20.5625 8.1875 C-19.66466797 7.92646484 -18.76683594 7.66542969 -17.84179688 7.39648438 C-16.56079102 7.00493164 -16.56079102 7.00493164 -15.25390625 6.60546875 C-14.46314697 6.36981201 -13.6723877 6.13415527 -12.85766602 5.89135742 C-12.24463623 5.59720947 -11.63160645 5.30306152 -11 5 C-10.67 4.01 -10.34 3.02 -10 2 C-8.63875 2.061875 -8.63875 2.061875 -7.25 2.125 C-4.0398182 2.00153147 -2.75469626 1.4248429 0 0 Z " fill="#1B5692" transform="translate(734,686)"/>
<path d="M0 0 C0 0.33 0 0.66 0 1 C-0.84304688 1.13277344 -1.68609375 1.26554688 -2.5546875 1.40234375 C-3.65039062 1.57894531 -4.74609375 1.75554687 -5.875 1.9375 C-6.96554687 2.11152344 -8.05609375 2.28554687 -9.1796875 2.46484375 C-11.93821546 2.85551159 -11.93821546 2.85551159 -14 4 C-16.125 3.5625 -16.125 3.5625 -18 3 C-18.33 3.99 -18.66 4.98 -19 6 C-19.33 5.34 -19.66 4.68 -20 4 C-20.56203125 4.16371094 -21.1240625 4.32742187 -21.703125 4.49609375 C-24.13059056 5.02864997 -26.26889681 5.09898681 -28.75 5.0625 C-29.54921875 5.05347656 -30.3484375 5.04445312 -31.171875 5.03515625 C-31.77515625 5.02355469 -32.3784375 5.01195312 -33 5 C-33 4.67 -33 4.34 -33 4 C-29.1896065 3.32091103 -25.37640981 2.65902937 -21.5625 2 C-20.49322266 1.80921875 -19.42394531 1.6184375 -18.32226562 1.421875 C-12.11337002 0.35857789 -6.29838048 -0.21193289 0 0 Z " fill="#0DA8C4" transform="translate(489,193)"/>
<path d="M0 0 C5.94 0.33 11.88 0.66 18 1 C9.93961486 5.03019257 -0.10978296 4.18061389 -9 4 C-9 3.67 -9 3.34 -9 3 C-5.92382812 2.70703125 -5.92382812 2.70703125 -2.84765625 2.4140625 C-2.23792969 2.27742188 -1.62820313 2.14078125 -1 2 C-0.67 1.34 -0.34 0.68 0 0 Z " fill="#07C1E2" transform="translate(361,316)"/>
<path d="M0 0 C1.9996695 0.03635763 4.00059462 0.04876598 6 0 C6.33 1.65 6.66 3.3 7 5 C-2 3 -2 3 -11 1 C-6.94934322 -1.31718794 -4.58729343 -0.79091266 0 0 Z " fill="#DDF8FA" transform="translate(447,320)"/>
<path d="M0 0 C1.88649506 3.26992478 2.67972144 6.23672696 3 10 C2.01 11.485 2.01 11.485 1 13 C-0.90401138 11.09598862 -1.93520439 9.66574314 -2.19921875 6.953125 C-2.1886578 4.96766727 -2.09915043 2.9830086 -2 1 C-1.34 0.67 -0.68 0.34 0 0 Z M-5 4 C-4.01 4.33 -3.02 4.66 -2 5 C-2.99 5 -3.98 5 -5 5 C-5 4.67 -5 4.34 -5 4 Z " fill="#0A61AB" transform="translate(274,700)"/>
<path d="M0 0 C3.34855345 3.34855345 2.60366103 7.87633586 2.8125 12.4375 C2.87630859 13.40494141 2.94011719 14.37238281 3.00585938 15.36914062 C3.05162109 16.29791016 3.09738281 17.22667969 3.14453125 18.18359375 C3.18940674 19.03493896 3.23428223 19.88628418 3.28051758 20.76342773 C2.9386733 23.48895899 2.10195148 24.30969646 0 26 C-0.11044961 19.26257354 0.29867087 12.70019789 1 6 C0.34 6 -0.32 6 -1 6 C-0.67 4.02 -0.34 2.04 0 0 Z " fill="#0466B9" transform="translate(834,512)"/>
<path d="M0 0 C-0.99 0.33 -1.98 0.66 -3 1 C-3.495 1.515625 -3.99 2.03125 -4.5 2.5625 C-6 4 -6 4 -9 4 C-9.33 4.66 -9.66 5.32 -10 6 C-12.5625 6.625 -12.5625 6.625 -15 7 C-15.33 6.01 -15.66 5.02 -16 4 C-14.08959948 3.1319092 -12.17139263 2.28098217 -10.25 1.4375 C-9.18265625 0.96183594 -8.1153125 0.48617187 -7.015625 -0.00390625 C-4.01630163 -0.9946154 -2.86578759 -1.16161779 0 0 Z " fill="#E8F2F5" transform="translate(330,617)"/>
<path d="M0 0 C0.99 0 1.98 0 3 0 C3 1.65 3 3.3 3 5 C3.66 5 4.32 5 5 5 C5.45375 6.11375 5.9075 7.2275 6.375 8.375 C7.72465986 11.96199008 7.72465986 11.96199008 10 14 C10.39764263 15.98821313 10.73775349 17.98944339 11 20 C7.77181698 17.2300764 5.88088902 13.6505383 3.8125 10 C3.44447266 9.3709375 3.07644531 8.741875 2.69726562 8.09375 C0 3.369782 0 3.369782 0 0 Z " fill="#0C5298" transform="translate(237,654)"/>
<path d="M0 0 C0.66 0.33 1.32 0.66 2 1 C0.02923666 3.11674581 -1.74248566 4.8497833 -4.25 6.3125 C-8.22730045 8.75311618 -11.54915443 11.87454434 -15 15 C-15.66 14.67 -16.32 14.34 -17 14 C-15.29639246 12.411583 -13.58688171 10.82949619 -11.875 9.25 C-10.44800781 7.92742187 -10.44800781 7.92742187 -8.9921875 6.578125 C-6.08970226 4.07728915 -3.22491526 2.04786904 0 0 Z " fill="#13AEC9" transform="translate(274,353)"/>
<path d="M0 0 C15.84 0.495 15.84 0.495 32 1 C32 1.33 32 1.66 32 2 C27.92566396 2.21724212 23.85090319 2.41405801 19.7746582 2.59204102 C18.38832281 2.65544693 17.00223022 2.72441716 15.61645508 2.79907227 C13.62393806 2.90544455 11.63030018 2.99012226 9.63671875 3.07421875 C8.43748779 3.13182373 7.23825684 3.18942871 6.00268555 3.2487793 C3 3 3 3 0 0 Z " fill="#0A6CC4" transform="translate(327,478)"/>
<path d="M0 0 C-3.09648376 3.19637033 -5.31734601 4.3176732 -9.6875 4.4375 C-12.01171875 4.43359375 -12.01171875 4.43359375 -14 4 C-14.66 3.01 -15.32 2.02 -16 1 C-10.61509359 0.08342019 -5.45769811 -0.11138159 0 0 Z " fill="#E0F5F6" transform="translate(331,409)"/>
<path d="M0 0 C0.33 0 0.66 0 1 0 C1.33 7.59 1.66 15.18 2 23 C1.01 23.33 0.02 23.66 -1 24 C-1.38133299 22.0085944 -1.71325582 20.00720923 -2 18 C-1.67 17.67 -1.34 17.34 -1 17 C-0.76298761 14.14122091 -0.57780818 11.30116703 -0.4375 8.4375 C-0.39431641 7.63119141 -0.35113281 6.82488281 -0.30664062 5.99414062 C-0.20024738 3.99631195 -0.09959112 1.9981793 0 0 Z " fill="#C9E3F2" transform="translate(219,581)"/>
<path d="M0 0 C3.3 0.66 6.6 1.32 10 2 C7 5 7 5 3.3125 5.1875 C1.6728125 5.0946875 1.6728125 5.0946875 0 5 C-0.33 4.01 -0.66 3.02 -1 2 C-0.67 1.34 -0.34 0.68 0 0 Z " fill="#EAF9F9" transform="translate(637,539)"/>
<path d="M0 0 C0.66 0 1.32 0 2 0 C3.625 2 3.625 2 5 4 C5.66 3.67 6.32 3.34 7 3 C7.99 5.97 8.98 8.94 10 12 C6.15216516 8.93922229 2.85267377 6.05957421 0 2 C0 1.34 0 0.68 0 0 Z " fill="#165392" transform="translate(270,707)"/>
<path d="M0 0 C0 3.10551666 -0.5393715 4.35261084 -2 7 C-2.66 7 -3.32 7 -4 7 C-4.33 8.65 -4.66 10.3 -5 12 C-6.32 12.33 -7.64 12.66 -9 13 C-6.38888348 8.16459904 -3.62542917 4.12896099 0 0 Z " fill="#14B2CE" transform="translate(241,384)"/>
<path d="M0 0 C0.33 1.32 0.66 2.64 1 4 C-0.2065625 4.8971875 -0.2065625 4.8971875 -1.4375 5.8125 C-4.22327984 7.80947276 -4.22327984 7.80947276 -5 11 C-7.0625 12.1875 -7.0625 12.1875 -9 13 C-7.50923566 9.7173068 -5.61379679 7.06922559 -3.375 4.25 C-2.74335938 3.45078125 -2.11171875 2.6515625 -1.4609375 1.828125 C-0.97882813 1.22484375 -0.49671875 0.6215625 0 0 Z " fill="#E3F9F9" transform="translate(229,458)"/>
<path d="M0 0 C2.62506802 -0.02690844 5.24986173 -0.04679404 7.875 -0.0625 C8.62136719 -0.07087891 9.36773438 -0.07925781 10.13671875 -0.08789062 C15.7734375 -0.11328125 15.7734375 -0.11328125 18 1 C18 1.66 18 2.32 18 3 C12.06 2.34 6.12 1.68 0 1 C0 0.67 0 0.34 0 0 Z " fill="#C7F3F7" transform="translate(552,193)"/>
<path d="M0 0 C0.99 0.66 1.98 1.32 3 2 C2.34 2.66 1.68 3.32 1 4 C0.01 4 -0.98 4 -2 4 C-2.33 5.32 -2.66 6.64 -3 8 C-4.65 8.33 -6.3 8.66 -8 9 C-7.04270084 7.87411986 -6.08412105 6.7493285 -5.125 5.625 C-4.59132812 4.99851562 -4.05765625 4.37203125 -3.5078125 3.7265625 C-2.38567993 2.44163349 -1.20628025 1.20628025 0 0 Z " fill="#1862A8" transform="translate(250,515)"/>
<path d="M0 0 C1 2 1 2 0.546875 3.953125 C-1.02464423 8.48279807 -2.71944321 12.76468024 -5 17 C-5.66 17 -6.32 17 -7 17 C-5.1668733 11.00067626 -2.92678249 5.55079437 0 0 Z " fill="#1DAFCA" transform="translate(217,423)"/>
<path d="M0 0 C1 2 1 2 0.6171875 3.8046875 C-1.07884945 8.53573794 -2.63759729 11.17033338 -7 14 C-5.53967505 8.68972746 -3.01679014 4.53669968 0 0 Z " fill="#0DAFCD" transform="translate(227,404)"/>
<path d="M0 0 C-2.04190981 -0.14238837 -4.08352045 -0.28907028 -6.125 -0.4375 C-7.26195312 -0.51871094 -8.39890625 -0.59992188 -9.5703125 -0.68359375 C-12.7540478 -0.97730965 -15.85510907 -1.43124313 -19 -2 C-19 -2.33 -19 -2.66 -19 -3 C-12.23636935 -4.73426427 -6.05848536 -3.24855436 0 0 Z " fill="#15ACC7" transform="translate(382,411)"/>
<path d="M0 0 C0.33 0.66 0.66 1.32 1 2 C1.66 2.33 2.32 2.66 3 3 C2.34 3 1.68 3 1 3 C0.34 5.64 -0.32 8.28 -1 11 C-1.99 11 -2.98 11 -4 11 C-3.52269162 9.5410574 -3.04308958 8.08286504 -2.5625 6.625 C-2.29566406 5.81289063 -2.02882812 5.00078125 -1.75390625 4.1640625 C-1 2 -1 2 0 0 Z " fill="#E4F8F6" transform="translate(205,495)"/>
<path d="M0 0 C0.66 0 1.32 0 2 0 C1.71715982 1.77226453 1.42339502 3.542788 1.125 5.3125 C0.96257813 6.29863281 0.80015625 7.28476562 0.6328125 8.30078125 C0 11 0 11 -2 14 C-2 11.03 -2 8.06 -2 5 C-1.34 5 -0.68 5 0 5 C0 3.35 0 1.7 0 0 Z " fill="#0B4F92" transform="translate(832,555)"/>
<path d="M0 0 C0 0.66 0 1.32 0 2 C1.98 2 3.96 2 6 2 C6 2.33 6 2.66 6 3 C1.38 3 -3.24 3 -8 3 C-8.33 2.34 -8.66 1.68 -9 1 C-2.25 0 -2.25 0 0 0 Z " fill="#05BFE0" transform="translate(648,404)"/>
<path d="M0 0 C0.99 0.33 1.98 0.66 3 1 C1.23494565 1.86604534 -0.53728074 2.71748642 -2.3125 3.5625 C-3.79169922 4.27599609 -3.79169922 4.27599609 -5.30078125 5.00390625 C-8 6 -8 6 -11 5 C-10.67 4.01 -10.34 3.02 -10 2 C-9.0925 2.04125 -8.185 2.0825 -7.25 2.125 C-4.0398182 2.00153147 -2.75469626 1.4248429 0 0 Z " fill="#084E93" transform="translate(734,686)"/>
<path d="M0 0 C1.22589844 0.01353516 1.22589844 0.01353516 2.4765625 0.02734375 C3.41628906 0.04474609 3.41628906 0.04474609 4.375 0.0625 C0.68765242 2.52073172 -2.32199971 3.07492616 -6.625 4.0625 C-6.625 3.0725 -6.625 2.0825 -6.625 1.0625 C-4.21954362 -0.14022819 -2.67503047 -0.03821472 0 0 Z " fill="#EBF5F7" transform="translate(747.625,608.9375)"/>
<path d="M0 0 C2.64 0 5.28 0 8 0 C7.01 1.485 7.01 1.485 6 3 C3.8359375 3.29296875 3.8359375 3.29296875 1.375 3.1875 C0.55773437 3.16042969 -0.25953125 3.13335937 -1.1015625 3.10546875 C-1.72804688 3.07066406 -2.35453125 3.03585937 -3 3 C-2.01 2.67 -1.02 2.34 0 2 C0 1.34 0 0.68 0 0 Z " fill="#E2F5F5" transform="translate(642,401)"/>
<path d="M0 0 C-0.33 1.32 -0.66 2.64 -1 4 C-1.33 3.34 -1.66 2.68 -2 2 C-2.84304688 2.24556641 -2.84304688 2.24556641 -3.703125 2.49609375 C-6.13059056 3.02864997 -8.26889681 3.09898681 -10.75 3.0625 C-11.54921875 3.05347656 -12.3484375 3.04445312 -13.171875 3.03515625 C-13.77515625 3.02355469 -14.3784375 3.01195312 -15 3 C-15 2.67 -15 2.34 -15 2 C-13.2508503 1.66223316 -11.50063855 1.32996329 -9.75 1 C-8.77546875 0.814375 -7.8009375 0.62875 -6.796875 0.4375 C-4 0 -4 0 0 0 Z " fill="#22B5D0" transform="translate(471,195)"/>
<path d="M0 0 C0.66 0.33 1.32 0.66 2 1 C0.02 2.65 -1.96 4.3 -4 6 C-4 5.34 -4 4.68 -4 4 C-5.98 4.33 -7.96 4.66 -10 5 C-6.76527494 2.84351662 -3.62848922 1.38542316 0 0 Z " fill="#292929" transform="translate(729,740)"/>
<path d="M0 0 C0.99 0 1.98 0 3 0 C3 0.99 3 1.98 3 3 C3.99 3.33 4.98 3.66 6 4 C6.33 4.99 6.66 5.98 7 7 C3.22454612 5.90931332 0.52956528 5.0916909 -2 2 C-0.68 2.33 0.64 2.66 2 3 C2 2.34 2 1.68 2 1 C1.34 0.67 0.68 0.34 0 0 Z " fill="#16B4CF" transform="translate(449,432)"/>
<path d="M0 0 C-0.33 0.99 -0.66 1.98 -1 3 C-3.91482778 3.80967438 -5.46113217 4.21845993 -8.3125 3.0625 C-8.869375 2.711875 -9.42625 2.36125 -10 2 C-6.38026598 0.68373308 -3.90432869 0 0 0 Z " fill="#E7F9F9" transform="translate(353,266)"/>
<path d="M0 0 C2.31 0 4.62 0 7 0 C6.01 0.495 6.01 0.495 5 1 C3.86649466 3.01669827 3.86649466 3.01669827 3 5 C1.68 4.34 0.36 3.68 -1 3 C-0.67 2.01 -0.34 1.02 0 0 Z " fill="#EBF9F8" transform="translate(450,260)"/>
<path d="M0 0 C2.64 0 5.28 0 8 0 C8.33 0.99 8.66 1.98 9 3 C4.545 3.495 4.545 3.495 0 4 C0 2.66666667 0 1.33333333 0 0 Z " fill="#D4F2F5" transform="translate(384,259)"/>
<path d="M0 0 C2.64 0.33 5.28 0.66 8 1 C7.01 1.495 7.01 1.495 6 2 C6 2.66 6 3.32 6 4 C3.36 3.67 0.72 3.34 -2 3 C-1.34 2.67 -0.68 2.34 0 2 C0 1.34 0 0.68 0 0 Z " fill="#E4EDF0" transform="translate(392,615)"/>
<path d="M0 0 C1.97986082 0.11347619 3.95891598 0.2410935 5.9375 0.375 C7.03964844 0.44460938 8.14179687 0.51421875 9.27734375 0.5859375 C10.62505859 0.79089844 10.62505859 0.79089844 12 1 C12.33 1.66 12.66 2.32 13 3 C9.57056481 4.18771723 7.62215325 3.80226223 4.25 2.5625 C3.45078125 2.27503906 2.6515625 1.98757813 1.828125 1.69140625 C1.22484375 1.46324219 0.6215625 1.23507812 0 1 C0 0.67 0 0.34 0 0 Z " fill="#E6F4F6" transform="translate(621,608)"/>
<path d="M0 0 C1.36511719 0.43119141 1.36511719 0.43119141 2.7578125 0.87109375 C3.45648438 1.09925781 4.15515625 1.32742188 4.875 1.5625 C1.78021121 2.59409626 0.34868607 2.53732862 -2.8125 2.125 C-4.02486328 1.97224609 -4.02486328 1.97224609 -5.26171875 1.81640625 C-5.87660156 1.73261719 -6.49148438 1.64882813 -7.125 1.5625 C-7.125 0.9025 -7.125 0.2425 -7.125 -0.4375 C-4.30685434 -1.84657283 -2.95222796 -0.94622691 0 0 Z " fill="#07529D" transform="translate(388.125,483.4375)"/>
<path d="M0 0 C-1.625 2 -1.625 2 -4 4 C-7.25 4.25 -7.25 4.25 -10 4 C-7.10257116 -0.27715685 -5.06635533 -1.57231717 0 0 Z " fill="#17C0DE" transform="translate(344,321)"/>
<path d="M0 0 C0.66 0 1.32 0 2 0 C1.74438677 2.3431213 1.40729228 4.67843403 1 7 C0.01 7.495 0.01 7.495 -1 8 C-1.625 5.6875 -1.625 5.6875 -2 3 C-1.34 2.01 -0.68 1.02 0 0 Z " fill="#EFF3F3" transform="translate(827,582)"/>
<path d="M0 0 C4.29 0.33 8.58 0.66 13 1 C13 1.33 13 1.66 13 2 C7.06 2.495 7.06 2.495 1 3 C0.67 2.01 0.34 1.02 0 0 Z " fill="#BEEBEF" transform="translate(661,544)"/>
<path d="M0 0 C0.99 0.495 0.99 0.495 2 1 C2.4140625 3.50390625 2.4140625 3.50390625 2.625 6.5625 C2.69976563 7.57441406 2.77453125 8.58632813 2.8515625 9.62890625 C2.92503906 10.80259766 2.92503906 10.80259766 3 12 C2.690625 11.360625 2.38125 10.72125 2.0625 10.0625 C1.1654837 8.06389179 1.1654837 8.06389179 0 7 C-0.04092937 4.66702567 -0.04241723 2.33294775 0 0 Z " fill="#18B0CA" transform="translate(814,390)"/>
<path d="M0 0 C0.33 0.66 0.66 1.32 1 2 C1.99 2.33 2.98 2.66 4 3 C1.36 3.99 -1.28 4.98 -4 6 C-2.84826645 3.53199953 -1.95216435 1.95216435 0 0 Z " fill="#1CA9C6" transform="translate(325,269)"/>
<path d="M0 0 C0 0.99 0 1.98 0 3 C-3.3 2.67 -6.6 2.34 -10 2 C-6.00889681 0.0044484 -4.30013434 -0.19546065 0 0 Z " fill="#1AB8D2" transform="translate(475,261)"/>
<path d="M0 0 C-0.33 0.66 -0.66 1.32 -1 2 C-4.3 2 -7.6 2 -11 2 C-6.80312837 -0.79791442 -4.79748656 -1.16695619 0 0 Z " fill="#16B4D1" transform="translate(457,199)"/>
<path d="M0 0 C0.33 1.32 0.66 2.64 1 4 C-0.98 4.99 -0.98 4.99 -3 6 C-3.99 5.34 -4.98 4.68 -6 4 C-4.02 2.68 -2.04 1.36 0 0 Z " fill="#EAF5F9" transform="translate(306,626)"/>
<path d="M0 0 C0.185625 0.9590625 0.185625 0.9590625 0.375 1.9375 C0.684375 2.9584375 0.684375 2.9584375 1 4 C1.66 4.33 2.32 4.66 3 5 C0.03 7.475 0.03 7.475 -3 10 C-2.39009109 6.44219804 -1.4216319 3.3171411 0 0 Z " fill="#DEF9FA" transform="translate(811,467)"/>
<path d="M0 0 C-0.99 1.485 -0.99 1.485 -2 3 C-4.86724686 2.42655063 -5.8614515 2.1385485 -8 0 C-4.94736336 -0.98120464 -3.05263664 -0.98120464 0 0 Z " fill="#E1EEF2" transform="translate(705,700)"/>
<path d="M0 0 C0.66 0 1.32 0 2 0 C1.75 1.875 1.75 1.875 1 4 C-1.0625 5.25 -1.0625 5.25 -3 6 C-2.42655063 3.13275314 -2.1385485 2.1385485 0 0 Z " fill="#0F5EA6" transform="translate(782,651)"/>
<path d="M0 0 C5.75 0.75 5.75 0.75 8 3 C5.36 3 2.72 3 0 3 C0 2.01 0 1.02 0 0 Z " fill="#ECF5F7" transform="translate(435,628)"/>
<path d="M0 0 C1 3 1 3 0.0625 5.1875 C-0.4634375 6.0846875 -0.4634375 6.0846875 -1 7 C-1.66 7 -2.32 7 -3 7 C-3.33 7.66 -3.66 8.32 -4 9 C-3.38461538 3.46153846 -3.38461538 3.46153846 -1.4375 1.125 C-0.963125 0.75375 -0.48875 0.3825 0 0 Z " fill="#EEF5F5" transform="translate(828,524)"/>
<path d="M0 0 C0.66 0 1.32 0 2 0 C1.60196439 2.88575819 1.20990931 3.82189513 -1.0625 5.75 C-1.701875 6.1625 -2.34125 6.575 -3 7 C-3.33 6.01 -3.66 5.02 -4 4 C-3.34 4 -2.68 4 -2 4 C-2 3.34 -2 2.68 -2 2 C-1.34 2 -0.68 2 0 2 C0 1.34 0 0.68 0 0 Z " fill="#02B0D1" transform="translate(787,503)"/>
<path d="M0 0 C0.33 0.66 0.66 1.32 1 2 C-1.39509338 4.89932357 -3.31245243 5.50168276 -7 6 C-2.25 1.125 -2.25 1.125 0 0 Z " fill="#07529D" transform="translate(277,495)"/>
<path d="M0 0 C2 0.6875 2 0.6875 4 2.6875 C2.25 3.375 2.25 3.375 0 3.6875 C-2.25 2.25 -2.25 2.25 -4 0.6875 C-2 -0.3125 -2 -0.3125 0 0 Z " fill="#EBF4F8" transform="translate(418,491.3125)"/>
<path d="M0 0 C1.45792884 -0.05399736 2.91642712 -0.09279177 4.375 -0.125 C5.18710937 -0.14820313 5.99921875 -0.17140625 6.8359375 -0.1953125 C9 0 9 0 11 2 C6.99799622 3.60080151 3.95443764 2.29279692 0 1 C0 0.67 0 0.34 0 0 Z " fill="#DCF5F6" transform="translate(454,325)"/>
<path d="M0 0 C1.32 0.33 2.64 0.66 4 1 C4.33 3.31 4.66 5.62 5 8 C2.20127563 5.47211993 0.54226981 3.79588866 0 0 Z " fill="#06519A" transform="translate(257,688)"/>
<path d="M0 0 C0.66 0.33 1.32 0.66 2 1 C-0.97 3.475 -0.97 3.475 -4 6 C-4.66 5.67 -5.32 5.34 -6 5 C-3.375 1.125 -3.375 1.125 0 0 Z " fill="#0D549A" transform="translate(771,663)"/>
<path d="M0 0 C0.66 0.99 1.32 1.98 2 3 C-1.465 4.485 -1.465 4.485 -5 6 C-4.75 4.125 -4.75 4.125 -4 2 C-1.9375 0.75 -1.9375 0.75 0 0 Z " fill="#15B3D0" transform="translate(754,528)"/>
<path d="M0 0 C0.66 0.66 1.32 1.32 2 2 C2.66 1.34 3.32 0.68 4 0 C4.33 0.99 4.66 1.98 5 3 C4.01 4.485 4.01 4.485 3 6 C2.34 6 1.68 6 1 6 C0.67 4.02 0.34 2.04 0 0 Z " fill="#0EB9D4" transform="translate(204,486)"/>
<path d="M0 0 C1.21236328 0.01353516 1.21236328 0.01353516 2.44921875 0.02734375 C3.37154297 0.04474609 3.37154297 0.04474609 4.3125 0.0625 C1.29100056 1.62777784 -1.26824001 2.71180667 -4.6875 3.0625 C-5.6775 2.4025 -6.6675 1.7425 -7.6875 1.0625 C-4.80538698 0.10179566 -2.98899956 -0.04331883 0 0 Z " fill="#E8F9FA" transform="translate(705.6875,396.9375)"/>
</svg>
